<?xml version="1.0" encoding="UTF-8"?>
<svg xmlns="http://www.w3.org/2000/svg" xmlns:xlink="http://www.w3.org/1999/xlink" width="13pt" height="15pt" viewBox="0 0 13 15" version="1.1">
<g id="surface1">
<path style=" stroke:none;fill-rule:nonzero;fill:rgb(0%,0%,0%);fill-opacity:1;" d="M 5.203125 14.300781 C 3.804688 13.59375 1.941406 11.703125 1.230469 10.277344 C 0.308594 8.425781 0.140625 7.351562 0.195312 3.589844 L 0.242188 0.257812 L 12.8125 0.171875 L 12.8125 3.675781 C 12.8125 7.558594 12.675781 8.414062 11.757812 10.273438 C 11.074219 11.660156 9.179688 13.554688 7.742188 14.296875 C 7.167969 14.59375 6.589844 14.832031 6.460938 14.828125 C 6.332031 14.824219 5.765625 14.585938 5.203125 14.300781 Z M 7.496094 13.972656 C 8.953125 13.171875 9.839844 12.390625 10.773438 11.082031 C 12.140625 9.160156 12.34375 8.308594 12.429688 4.09375 L 12.503906 0.511719 L 0.460938 0.511719 L 0.539062 4.09375 C 0.605469 7.152344 0.671875 7.835938 0.984375 8.78125 C 1.695312 10.945312 3.457031 12.996094 5.492188 14.03125 C 5.992188 14.285156 6.429688 14.496094 6.472656 14.496094 C 6.511719 14.5 6.972656 14.265625 7.496094 13.972656 Z M 7.496094 13.972656 "/>
<path style="fill-rule:nonzero;fill:rgb(0%,0%,0%);fill-opacity:1;stroke-width:0.0324779;stroke-linecap:butt;stroke-linejoin:miter;stroke:rgb(100%,100%,100%);stroke-opacity:0.941176;stroke-miterlimit:4;" d="M 78.574803 68.803235 L 82.68538 68.803235 C 84.557976 68.803235 86.065188 70.332922 86.065188 72.187089 C 86.065188 74.064433 84.557976 75.570943 82.68538 75.570943 L 78.574803 75.570943 C 76.725043 75.570943 75.194995 74.064433 75.194995 72.187089 C 75.194995 70.332922 76.725043 68.803235 78.574803 68.803235 Z M 78.574803 68.803235 " transform="matrix(0.171053,0,0,0.168539,-7.346677,0.489887)"/>
<path style="fill-rule:nonzero;fill:rgb(0%,0%,0%);fill-opacity:1;stroke-width:0.0241311;stroke-linecap:butt;stroke-linejoin:miter;stroke:rgb(100%,100%,100%);stroke-opacity:0.941176;stroke-miterlimit:4;" d="M 77.158938 57.423287 L 84.283938 57.423287 C 85.334418 57.423287 86.156534 58.257662 86.156534 59.277453 C 86.156534 60.320422 85.334418 61.154797 84.283938 61.154797 L 77.158938 61.154797 C 76.131293 61.154797 75.286341 60.320422 75.286341 59.277453 C 75.286341 58.257662 76.131293 57.423287 77.158938 57.423287 Z M 77.158938 57.423287 " transform="matrix(0.171053,0,0,0.168539,-7.346677,0.489887)"/>
<path style=" stroke:none;fill-rule:nonzero;fill:rgb(0%,0%,0%);fill-opacity:1;" d="M 5.644531 2.476562 L 6.5 2.476562 L 6.5 9.347656 L 5.644531 9.347656 Z M 5.644531 2.476562 "/>
<path style=" stroke:none;fill-rule:nonzero;fill:rgb(0%,0%,0%);fill-opacity:1;" d="M 6.5 2.480469 L 5.644531 2.480469 L 6.5 1.761719 Z M 6.5 2.480469 "/>
<path style=" stroke:none;fill-rule:nonzero;fill:rgb(100%,100%,100%);fill-opacity:1;" d="M 6.417969 2.6875 L 5.730469 2.53125 L 6.417969 1.925781 Z M 6.417969 2.6875 "/>
<path style=" stroke:none;fill-rule:nonzero;fill:rgb(100%,100%,100%);fill-opacity:1;" d="M 5.730469 2.53125 L 6.414062 2.53125 L 6.414062 9.242188 L 5.730469 9.242188 Z M 5.730469 2.53125 "/>
<path style=" stroke:none;fill-rule:nonzero;fill:rgb(0%,0%,0%);fill-opacity:1;" d="M 7.355469 2.476562 L 6.5 2.476562 L 6.5 9.347656 L 7.355469 9.347656 Z M 7.355469 2.476562 "/>
<path style=" stroke:none;fill-rule:nonzero;fill:rgb(0%,0%,0%);fill-opacity:1;" d="M 6.5 2.480469 L 7.355469 2.480469 L 6.5 1.761719 Z M 6.5 2.480469 "/>
<path style=" stroke:none;fill-rule:nonzero;fill:rgb(0%,0%,0%);fill-opacity:1;" d="M 4.375 9.125 L 8.625 9.125 C 8.722656 9.125 8.796875 9.203125 8.796875 9.296875 C 8.796875 9.390625 8.722656 9.464844 8.625 9.464844 L 4.375 9.464844 C 4.277344 9.464844 4.203125 9.390625 4.203125 9.296875 C 4.203125 9.203125 4.277344 9.125 4.375 9.125 Z M 4.375 9.125 "/>
<path style=" stroke:none;fill-rule:nonzero;fill:rgb(0%,0%,0%);fill-opacity:1;" d="M 8.296875 8.953125 L 8.449219 8.953125 C 8.640625 8.953125 8.796875 9.105469 8.796875 9.296875 C 8.796875 9.484375 8.640625 9.640625 8.449219 9.640625 L 8.296875 9.640625 C 8.101562 9.640625 7.945312 9.484375 7.945312 9.296875 C 7.945312 9.105469 8.101562 8.953125 8.296875 8.953125 Z M 8.296875 8.953125 "/>
<path style=" stroke:none;fill-rule:nonzero;fill:rgb(0%,0%,0%);fill-opacity:1;" d="M 4.550781 8.953125 L 4.703125 8.953125 C 4.898438 8.953125 5.054688 9.105469 5.054688 9.296875 C 5.054688 9.484375 4.898438 9.640625 4.703125 9.640625 L 4.550781 9.640625 C 4.359375 9.640625 4.203125 9.484375 4.203125 9.296875 C 4.203125 9.105469 4.359375 8.953125 4.550781 8.953125 Z M 4.550781 8.953125 "/>
<path style=" stroke:none;fill-rule:nonzero;fill:rgb(0%,0%,0%);fill-opacity:1;" d="M 5.890625 9.214844 L 7.109375 9.214844 C 7.285156 9.214844 7.429688 9.359375 7.429688 9.53125 C 7.429688 9.707031 7.285156 9.847656 7.109375 9.847656 L 5.890625 9.847656 C 5.714844 9.847656 5.570312 9.707031 5.570312 9.53125 C 5.570312 9.359375 5.714844 9.214844 5.890625 9.214844 Z M 5.890625 9.214844 "/>
<path style="fill-rule:nonzero;fill:rgb(0%,0%,0%);fill-opacity:1;stroke-width:0.0241311;stroke-linecap:butt;stroke-linejoin:miter;stroke:rgb(100%,100%,100%);stroke-opacity:0.941176;stroke-miterlimit:4;" d="M 76.953409 63.101672 L 84.101245 63.101672 C 85.12889 63.101672 85.951005 63.936047 85.951005 64.979016 C 85.951005 65.998808 85.12889 66.85636 84.101245 66.85636 L 76.953409 66.85636 C 75.925765 66.85636 75.080813 65.998808 75.080813 64.979016 C 75.080813 63.936047 75.925765 63.101672 76.953409 63.101672 Z M 76.953409 63.101672 " transform="matrix(0.171053,0,0,0.168539,-7.346677,0.489887)"/>
</g>
</svg>
