<?xml version="1.0" encoding="UTF-8"?>
<svg xmlns="http://www.w3.org/2000/svg" xmlns:xlink="http://www.w3.org/1999/xlink" width="15pt" height="14pt" viewBox="0 0 15 14" version="1.1">
<g id="surface1">
<path style=" stroke:none;fill-rule:nonzero;fill:rgb(0%,0%,0%);fill-opacity:1;" d="M 6.519531 0.0117188 C 6.417969 0.03125 6.140625 0.125 6.070312 0.167969 C 5.738281 0.351562 5.601562 0.757812 5.691406 1.292969 C 5.71875 1.464844 5.765625 1.640625 5.808594 1.742188 L 5.851562 1.839844 L 4.238281 4.3125 L 2.625 6.78125 L 2.625 6.90625 L 2.328125 6.90625 L 2.03125 6.554688 L 1.734375 6.199219 L 1.675781 6.199219 C 1.605469 6.199219 0.296875 6.125 0.195312 6.117188 L 0.125 6.109375 L 0.601562 6.566406 L 1.078125 7.027344 L 0.546875 7.46875 C 0.257812 7.710938 0.015625 7.914062 0.015625 7.917969 C 0.0117188 7.921875 0.238281 7.929688 0.519531 7.933594 C 0.796875 7.9375 1.160156 7.945312 1.324219 7.949219 L 1.625 7.957031 L 1.972656 7.601562 L 2.324219 7.242188 L 2.605469 7.25 L 2.609375 7.277344 C 2.609375 7.292969 3.277344 8.398438 4.097656 9.730469 L 5.585938 12.15625 L 5.53125 12.289062 C 5.425781 12.539062 5.378906 12.746094 5.378906 12.960938 C 5.378906 13.273438 5.445312 13.511719 5.582031 13.6875 C 5.757812 13.914062 6.074219 14.03125 6.367188 13.980469 C 6.621094 13.933594 6.84375 13.820312 6.972656 13.664062 C 7.046875 13.578125 7.128906 13.421875 7.15625 13.3125 C 7.191406 13.171875 7.167969 12.898438 7.109375 12.742188 C 7.042969 12.558594 6.890625 12.449219 6.691406 12.4375 C 6.535156 12.429688 6.339844 12.472656 6.160156 12.558594 C 6.121094 12.578125 6.097656 12.585938 6.101562 12.578125 C 6.125 12.539062 6.257812 12.347656 6.328125 12.261719 C 6.707031 11.757812 7.421875 10.976562 8.246094 10.175781 C 8.410156 10.015625 8.523438 9.894531 8.558594 9.84375 C 8.664062 9.6875 8.738281 9.519531 8.785156 9.335938 C 8.800781 9.269531 8.808594 9.203125 8.808594 9.046875 C 8.804688 8.867188 8.804688 8.832031 8.773438 8.730469 C 8.703125 8.457031 8.5625 8.207031 8.339844 7.957031 L 8.238281 7.84375 L 8.328125 7.753906 C 8.429688 7.660156 8.484375 7.574219 8.527344 7.464844 L 8.550781 7.398438 L 8.691406 7.398438 C 8.910156 7.40625 9.734375 7.421875 10.230469 7.4375 C 10.480469 7.441406 10.785156 7.449219 10.90625 7.453125 L 11.132812 7.460938 L 11.132812 7.878906 C 11.132812 8.113281 11.136719 8.300781 11.140625 8.300781 C 11.160156 8.300781 14.988281 7.25 14.984375 7.246094 C 14.980469 7.242188 11.148438 6.191406 11.136719 6.1875 C 11.132812 6.1875 11.132812 6.398438 11.132812 6.652344 L 11.132812 7.121094 L 11.011719 7.113281 C 10.945312 7.113281 10.671875 7.105469 10.398438 7.097656 C 9.152344 7.070312 8.902344 7.066406 8.746094 7.058594 L 8.582031 7.050781 L 8.5625 6.964844 C 8.539062 6.875 8.46875 6.722656 8.421875 6.660156 C 8.371094 6.597656 8.261719 6.492188 8.210938 6.460938 L 8.160156 6.433594 L 8.269531 6.328125 C 8.511719 6.097656 8.730469 5.789062 8.84375 5.53125 C 9.085938 4.964844 8.992188 4.453125 8.558594 4.007812 C 8.5 3.949219 8.445312 3.886719 8.4375 3.871094 C 8.410156 3.824219 8.246094 3.613281 8.144531 3.5 C 7.953125 3.28125 7.714844 3.039062 7.445312 2.792969 C 7.296875 2.660156 7.128906 2.5 7.078125 2.441406 C 6.816406 2.140625 6.664062 1.875 6.648438 1.695312 L 6.640625 1.625 L 6.804688 1.621094 C 7.0625 1.617188 7.238281 1.5625 7.371094 1.441406 C 7.496094 1.328125 7.550781 1.195312 7.546875 0.992188 C 7.546875 0.828125 7.535156 0.773438 7.464844 0.640625 C 7.226562 0.175781 6.875 -0.0546875 6.519531 0.0117188 Z M 6.21875 2.492188 C 6.421875 2.820312 6.695312 3.214844 6.796875 3.324219 C 6.914062 3.453125 7.101562 3.691406 7.207031 3.847656 C 7.539062 4.328125 7.710938 4.726562 7.777344 5.15625 C 7.8125 5.390625 7.789062 5.6875 7.71875 5.890625 C 7.6875 5.972656 7.589844 6.167969 7.546875 6.226562 C 7.527344 6.257812 7.515625 6.285156 7.519531 6.296875 C 7.523438 6.316406 7.515625 6.324219 7.453125 6.339844 C 7.148438 6.421875 6.910156 6.65625 6.832031 6.964844 L 6.816406 7.011719 L 6.464844 7.003906 C 6.269531 7 5.933594 6.992188 5.714844 6.988281 C 5.492188 6.980469 4.847656 6.964844 4.277344 6.953125 C 3.707031 6.941406 3.207031 6.925781 3.167969 6.921875 L 3.097656 6.917969 L 4 5.535156 C 4.496094 4.773438 5.175781 3.738281 5.503906 3.230469 C 5.832031 2.726562 6.101562 2.316406 6.105469 2.316406 C 6.109375 2.316406 6.160156 2.394531 6.21875 2.492188 Z M 3.820312 7.277344 C 4.113281 7.285156 4.539062 7.296875 4.765625 7.300781 C 4.988281 7.308594 5.5 7.320312 5.902344 7.328125 C 6.300781 7.339844 6.671875 7.347656 6.726562 7.347656 L 6.828125 7.351562 L 6.863281 7.449219 C 6.960938 7.714844 7.1875 7.914062 7.46875 7.984375 L 7.550781 8.003906 L 7.597656 8.09375 C 7.886719 8.691406 7.636719 9.523438 6.867188 10.511719 C 6.703125 10.726562 6.492188 10.96875 6.320312 11.144531 C 6.175781 11.289062 6.03125 11.460938 5.929688 11.601562 C 5.894531 11.648438 5.863281 11.691406 5.859375 11.691406 C 5.855469 11.691406 3.140625 7.273438 3.140625 7.265625 C 3.140625 7.261719 3.171875 7.261719 3.214844 7.261719 C 3.253906 7.265625 3.527344 7.273438 3.820312 7.277344 Z M 3.820312 7.277344 "/>
</g>
</svg>
