<?xml version="1.0" encoding="UTF-8"?>
<svg xmlns="http://www.w3.org/2000/svg" xmlns:xlink="http://www.w3.org/1999/xlink" width="10pt" height="14pt" viewBox="0 0 10 14" version="1.1">
<g id="surface1">
<path style=" stroke:none;fill-rule:nonzero;fill:rgb(0%,0%,0%);fill-opacity:1;" d="M 9.742188 0.171875 C 9.222656 0.601562 9.117188 0.6875 8.847656 0.898438 C 8.261719 1.355469 8.023438 1.550781 7.855469 1.714844 L 7.777344 1.792969 L 7.8125 1.804688 C 7.925781 1.847656 7.988281 1.824219 8.132812 1.691406 C 8.195312 1.636719 8.421875 1.4375 8.636719 1.246094 C 9.789062 0.238281 9.996094 0.0507812 9.996094 0.0195312 C 9.996094 -0.0234375 9.941406 0.0078125 9.742188 0.171875 Z M 9.742188 0.171875 "/>
<path style=" stroke:none;fill-rule:nonzero;fill:rgb(0%,0%,0%);fill-opacity:1;" d="M 6.394531 1.097656 C 6.386719 1.109375 6.371094 1.148438 6.363281 1.179688 C 6.332031 1.328125 6.332031 1.324219 6.289062 1.324219 C 6.265625 1.324219 6.191406 1.3125 6.125 1.300781 C 6.011719 1.28125 5.996094 1.28125 5.914062 1.296875 C 5.855469 1.304688 5.753906 1.335938 5.628906 1.386719 C 5.394531 1.480469 5.335938 1.492188 5.199219 1.480469 C 5.105469 1.472656 5.097656 1.476562 5.070312 1.5 C 5.042969 1.523438 5.039062 1.535156 5.035156 1.621094 L 5.03125 1.71875 L 5.0625 1.71875 C 5.105469 1.71875 5.144531 1.734375 5.1875 1.769531 L 5.226562 1.800781 L 5.300781 1.757812 C 5.476562 1.65625 5.707031 1.5625 5.902344 1.519531 C 6.003906 1.496094 6.238281 1.464844 6.300781 1.464844 C 6.335938 1.464844 6.339844 1.464844 6.34375 1.519531 C 6.347656 1.554688 6.367188 1.609375 6.386719 1.648438 C 6.425781 1.726562 6.433594 1.800781 6.402344 1.769531 C 6.382812 1.75 6.339844 1.636719 6.339844 1.597656 C 6.339844 1.558594 6.347656 1.558594 6.160156 1.582031 C 5.355469 1.683594 4.804688 2.0625 4.484375 2.734375 C 4.429688 2.855469 4.339844 3.113281 4.304688 3.265625 C 4.277344 3.363281 4.273438 3.375 4.28125 3.320312 C 4.292969 3.207031 4.328125 3.0625 4.386719 2.886719 C 4.453125 2.6875 4.464844 2.648438 4.445312 2.648438 C 4.421875 2.648438 4.3125 2.691406 4.261719 2.726562 C 4.222656 2.75 4.195312 2.777344 4.175781 2.816406 C 4.15625 2.847656 4.105469 2.910156 4.0625 2.953125 C 4.003906 3.011719 3.976562 3.050781 3.964844 3.078125 C 3.949219 3.136719 3.949219 3.136719 3.988281 3.25 C 4.007812 3.304688 4.023438 3.359375 4.023438 3.375 C 4.023438 3.386719 4.003906 3.425781 3.980469 3.457031 C 3.941406 3.511719 3.9375 3.523438 3.9375 3.59375 C 3.9375 3.648438 3.949219 3.703125 3.976562 3.792969 C 3.996094 3.859375 4.019531 3.914062 4.023438 3.914062 C 4.039062 3.914062 4.1875 3.730469 4.207031 3.6875 C 4.21875 3.664062 4.230469 3.640625 4.230469 3.640625 C 4.230469 3.640625 4.230469 3.6875 4.222656 3.742188 C 4.214844 3.800781 4.207031 3.835938 4.203125 3.824219 C 4.175781 3.789062 4.011719 4.015625 3.917969 4.210938 C 3.863281 4.328125 3.859375 4.335938 3.867188 4.402344 C 3.867188 4.441406 3.890625 4.515625 3.917969 4.585938 C 3.953125 4.671875 3.964844 4.71875 3.964844 4.761719 C 3.964844 4.796875 3.96875 4.824219 3.976562 4.824219 C 3.980469 4.824219 4.007812 4.804688 4.03125 4.785156 C 4.082031 4.742188 4.125 4.65625 4.15625 4.550781 C 4.164062 4.511719 4.175781 4.476562 4.179688 4.472656 C 4.1875 4.464844 4.167969 4.605469 4.152344 4.679688 C 4.128906 4.777344 4.09375 4.832031 4.003906 4.898438 C 3.890625 4.984375 3.847656 5.085938 3.878906 5.1875 C 3.894531 5.242188 4.003906 5.433594 4.054688 5.5 C 4.089844 5.546875 4.089844 5.542969 4.125 5.398438 C 4.136719 5.335938 4.15625 5.28125 4.160156 5.273438 C 4.175781 5.25 4.164062 5.3125 4.136719 5.429688 C 4.125 5.480469 4.113281 5.539062 4.113281 5.570312 C 4.113281 5.617188 4.101562 5.640625 3.96875 5.835938 C 3.785156 6.113281 3.695312 6.226562 3.5625 6.347656 C 3.394531 6.503906 3.269531 6.585938 2.769531 6.851562 C 2.640625 6.921875 2.425781 7.039062 2.300781 7.105469 C 2.175781 7.171875 1.90625 7.3125 1.707031 7.417969 C 1.285156 7.632812 1.214844 7.679688 1.078125 7.808594 C 0.695312 8.167969 0.46875 8.65625 0.382812 9.292969 C 0.367188 9.40625 0.359375 9.4375 0.335938 9.460938 C 0.324219 9.476562 0.296875 9.515625 0.277344 9.546875 C 0.253906 9.585938 0.214844 9.628906 0.167969 9.664062 C 0.0390625 9.765625 0.0078125 9.867188 0.0078125 10.199219 C 0.0078125 10.363281 0.0117188 10.441406 0.0273438 10.523438 C 0.0742188 10.769531 0.195312 11.03125 0.351562 11.234375 C 0.496094 11.417969 0.597656 11.507812 0.824219 11.652344 C 1.0625 11.804688 1.25 11.945312 1.3125 12.019531 C 1.339844 12.050781 1.386719 12.132812 1.421875 12.199219 C 1.457031 12.269531 1.488281 12.328125 1.492188 12.328125 C 1.496094 12.328125 1.496094 12.304688 1.492188 12.277344 C 1.484375 12.21875 1.449219 12.144531 1.375 12.039062 C 1.34375 12 1.324219 11.960938 1.328125 11.960938 C 1.335938 11.949219 1.394531 11.980469 1.433594 12.015625 C 1.453125 12.035156 1.503906 12.085938 1.542969 12.132812 C 1.582031 12.179688 1.617188 12.21875 1.621094 12.21875 C 1.625 12.21875 1.636719 12.195312 1.648438 12.164062 C 1.660156 12.136719 1.707031 12.0625 1.757812 12 C 1.808594 11.933594 1.859375 11.863281 1.871094 11.839844 C 1.890625 11.808594 1.894531 11.800781 1.898438 11.820312 C 1.898438 11.875 1.855469 11.960938 1.777344 12.070312 C 1.679688 12.199219 1.65625 12.238281 1.65625 12.265625 C 1.65625 12.273438 1.671875 12.3125 1.691406 12.347656 C 1.707031 12.378906 1.738281 12.453125 1.753906 12.503906 L 1.785156 12.597656 L 1.929688 12.679688 C 2.253906 12.867188 2.734375 13.15625 2.800781 13.203125 C 2.925781 13.289062 3.015625 13.378906 3.050781 13.460938 C 3.070312 13.503906 3.109375 13.558594 3.140625 13.589844 C 3.242188 13.6875 3.269531 13.78125 3.238281 13.894531 C 3.230469 13.929688 3.222656 13.960938 3.226562 13.964844 C 3.234375 13.972656 3.277344 13.878906 3.277344 13.859375 C 3.277344 13.828125 3.324219 13.769531 3.347656 13.769531 C 3.367188 13.769531 3.371094 13.777344 3.371094 13.832031 C 3.371094 13.875 3.375 13.890625 3.386719 13.886719 C 3.390625 13.886719 3.398438 13.867188 3.402344 13.851562 C 3.402344 13.792969 3.40625 13.796875 3.421875 13.875 C 3.429688 13.914062 3.445312 13.953125 3.453125 13.957031 C 3.535156 14.007812 4.101562 14.007812 4.277344 13.960938 C 4.304688 13.953125 4.300781 13.929688 4.261719 13.851562 C 4.222656 13.769531 4.171875 13.710938 4.023438 13.558594 C 3.960938 13.496094 3.90625 13.441406 3.90625 13.4375 C 3.90625 13.4375 3.933594 13.441406 3.96875 13.449219 C 4 13.457031 4.105469 13.46875 4.199219 13.480469 C 4.351562 13.496094 4.378906 13.5 4.445312 13.535156 C 4.488281 13.554688 4.527344 13.566406 4.53125 13.5625 C 4.539062 13.558594 4.613281 13.585938 4.703125 13.621094 C 4.789062 13.660156 4.867188 13.695312 4.875 13.695312 C 4.914062 13.695312 4.722656 13.484375 4.597656 13.386719 C 4.382812 13.21875 4.152344 13.125 3.847656 13.082031 L 3.707031 13.0625 L 3.796875 13.054688 C 3.945312 13.039062 4.273438 13.054688 4.402344 13.082031 C 4.835938 13.167969 5.144531 13.382812 5.386719 13.757812 C 5.417969 13.804688 5.425781 13.8125 5.425781 13.792969 C 5.429688 13.695312 5.136719 13.375 4.914062 13.238281 C 4.746094 13.132812 4.554688 13.0625 4.347656 13.039062 C 4.292969 13.03125 4.105469 13.027344 3.890625 13.027344 C 3.578125 13.03125 3.511719 13.027344 3.417969 13.011719 C 3.359375 13 3.296875 12.984375 3.277344 12.976562 C 3.25 12.960938 3.085938 12.800781 3.085938 12.785156 C 3.085938 12.78125 3.128906 12.785156 3.179688 12.800781 C 3.230469 12.808594 3.453125 12.84375 3.671875 12.875 C 4.082031 12.929688 4.25 12.960938 4.398438 13.007812 L 4.484375 13.035156 L 4.445312 13.003906 C 4.386719 12.957031 4.214844 12.878906 4.101562 12.851562 C 4.046875 12.839844 3.882812 12.8125 3.730469 12.792969 C 3.390625 12.746094 3.285156 12.726562 3.195312 12.695312 C 3.125 12.671875 2.753906 12.449219 2.691406 12.394531 C 2.617188 12.328125 2.597656 12.234375 2.636719 12.132812 C 2.664062 12.0625 2.722656 11.980469 2.828125 11.863281 C 2.945312 11.730469 2.972656 11.679688 3.027344 11.511719 C 3.054688 11.433594 3.121094 11.265625 3.179688 11.140625 C 3.316406 10.832031 3.359375 10.726562 3.410156 10.582031 C 3.484375 10.359375 3.488281 10.3125 3.492188 9.839844 C 3.492188 9.367188 3.492188 9.359375 3.570312 9.203125 C 3.605469 9.125 3.683594 9.035156 3.726562 9.011719 C 3.746094 9 3.742188 9.007812 3.714844 9.046875 C 3.625 9.175781 3.5625 9.34375 3.539062 9.527344 C 3.527344 9.632812 3.527344 9.660156 3.546875 9.738281 C 3.554688 9.789062 3.566406 9.84375 3.566406 9.859375 C 3.566406 9.886719 3.566406 9.886719 3.640625 9.832031 C 3.769531 9.738281 3.871094 9.699219 4.238281 9.597656 C 4.492188 9.527344 4.613281 9.484375 4.804688 9.394531 C 5.070312 9.265625 5.578125 8.984375 5.867188 8.808594 C 6.296875 8.542969 6.589844 8.261719 6.773438 7.941406 L 6.824219 7.851562 L 6.726562 7.851562 C 6.675781 7.855469 6.566406 7.859375 6.484375 7.863281 C 6.191406 7.882812 6.066406 7.847656 5.925781 7.707031 C 5.847656 7.628906 5.808594 7.574219 5.65625 7.324219 C 5.613281 7.257812 5.546875 7.167969 5.5 7.121094 C 5.417969 7.035156 5.394531 6.988281 5.425781 6.972656 C 5.433594 6.96875 5.472656 6.996094 5.507812 7.035156 C 5.574219 7.101562 5.617188 7.160156 5.777344 7.421875 C 5.847656 7.539062 5.910156 7.613281 5.988281 7.667969 C 6.117188 7.761719 6.214844 7.785156 6.460938 7.769531 C 6.726562 7.753906 7.027344 7.757812 7.34375 7.78125 C 7.5 7.789062 7.691406 7.796875 7.761719 7.796875 C 7.957031 7.796875 8.167969 7.84375 8.179688 7.890625 C 8.183594 7.917969 8.128906 8.023438 8.019531 8.199219 C 7.914062 8.371094 7.859375 8.4375 7.8125 8.464844 C 7.777344 8.484375 7.753906 8.488281 7.574219 8.484375 C 7.445312 8.484375 7.367188 8.488281 7.359375 8.492188 C 7.351562 8.5 7.382812 8.503906 7.464844 8.5 C 7.527344 8.5 7.570312 8.5 7.5625 8.503906 C 7.523438 8.515625 7.542969 8.535156 7.585938 8.527344 C 7.609375 8.523438 7.632812 8.523438 7.636719 8.527344 C 7.640625 8.535156 7.625 8.542969 7.601562 8.546875 C 7.578125 8.550781 7.539062 8.554688 7.519531 8.558594 L 7.476562 8.566406 L 7.523438 8.519531 L 7.492188 8.53125 C 7.476562 8.539062 7.460938 8.550781 7.460938 8.558594 C 7.460938 8.574219 7.4375 8.585938 7.394531 8.585938 C 7.367188 8.585938 7.367188 8.585938 7.386719 8.5625 C 7.40625 8.542969 7.40625 8.542969 7.382812 8.542969 C 7.355469 8.542969 7.324219 8.582031 7.324219 8.609375 C 7.324219 8.625 7.328125 8.628906 7.355469 8.625 C 7.378906 8.617188 7.367188 8.628906 7.316406 8.660156 C 7.246094 8.707031 7.199219 8.761719 7.175781 8.832031 C 7.167969 8.855469 7.136719 8.898438 7.105469 8.933594 C 7.042969 8.996094 7.015625 9.046875 7.015625 9.09375 C 7.015625 9.160156 7.058594 9.128906 7.09375 9.03125 C 7.109375 8.996094 7.125 8.964844 7.132812 8.960938 C 7.140625 8.957031 7.140625 8.960938 7.136719 8.972656 C 7.105469 9.054688 7.089844 9.128906 7.089844 9.210938 C 7.089844 9.390625 7.167969 9.554688 7.382812 9.832031 L 7.523438 10.007812 L 7.546875 9.984375 C 7.5625 9.972656 7.59375 9.921875 7.617188 9.875 L 7.664062 9.789062 L 7.671875 9.855469 C 7.679688 9.9375 7.71875 10.003906 7.765625 10.03125 C 7.832031 10.066406 7.828125 10.039062 7.765625 9.953125 C 7.738281 9.917969 7.726562 9.875 7.746094 9.875 C 7.75 9.875 7.761719 9.894531 7.769531 9.917969 C 7.777344 9.941406 7.816406 9.988281 7.855469 10.023438 C 7.929688 10.097656 8.019531 10.140625 8.097656 10.140625 C 8.136719 10.140625 8.132812 10.136719 8.046875 10.09375 C 7.902344 10.027344 7.804688 9.90625 7.804688 9.800781 C 7.804688 9.78125 7.8125 9.792969 7.84375 9.847656 C 7.902344 9.96875 7.953125 10.007812 8.042969 10.007812 L 8.082031 10.007812 L 8.035156 9.984375 C 8.011719 9.972656 7.976562 9.949219 7.960938 9.933594 L 7.933594 9.90625 L 8 9.9375 C 8.042969 9.957031 8.082031 9.96875 8.136719 9.96875 C 8.203125 9.972656 8.207031 9.972656 8.167969 9.964844 C 8.0625 9.929688 8.03125 9.914062 7.988281 9.871094 C 7.910156 9.792969 7.890625 9.675781 7.929688 9.558594 C 7.949219 9.511719 7.960938 9.519531 7.96875 9.574219 C 7.972656 9.628906 8 9.667969 8.03125 9.667969 C 8.046875 9.667969 8.046875 9.644531 8.019531 9.535156 C 8.007812 9.480469 8.007812 9.464844 8.03125 9.378906 C 8.042969 9.328125 8.089844 9.203125 8.136719 9.109375 C 8.226562 8.914062 8.257812 8.832031 8.308594 8.660156 C 8.324219 8.59375 8.351562 8.519531 8.363281 8.5 C 8.402344 8.425781 8.554688 8.246094 8.695312 8.109375 C 8.851562 7.953125 8.863281 7.9375 8.859375 7.75 C 8.855469 7.507812 8.78125 7.3125 8.679688 7.269531 C 8.632812 7.25 8.53125 7.234375 8.382812 7.21875 C 8.121094 7.191406 7.789062 7.074219 7.6875 6.96875 C 7.636719 6.917969 7.628906 6.886719 7.652344 6.777344 C 7.664062 6.699219 7.667969 6.640625 7.664062 6.492188 C 7.652344 6.210938 7.605469 5.980469 7.496094 5.660156 C 7.410156 5.425781 7.367188 5.347656 7.210938 5.152344 C 6.878906 4.746094 6.683594 4.421875 6.570312 4.105469 C 6.527344 3.984375 6.472656 3.773438 6.464844 3.703125 C 6.460938 3.671875 6.449219 3.664062 6.289062 3.582031 C 6.191406 3.535156 6.085938 3.476562 6.050781 3.453125 C 5.90625 3.359375 5.792969 3.230469 5.753906 3.117188 C 5.730469 3.050781 5.714844 2.941406 5.726562 2.949219 C 5.730469 2.953125 5.734375 2.960938 5.734375 2.972656 C 5.734375 3.019531 5.824219 3.15625 5.902344 3.238281 C 6.003906 3.339844 6.105469 3.40625 6.324219 3.519531 C 6.417969 3.566406 6.554688 3.636719 6.621094 3.675781 C 6.691406 3.714844 6.828125 3.78125 6.929688 3.824219 C 7.117188 3.90625 7.167969 3.933594 7.238281 3.992188 C 7.277344 4.027344 7.28125 4.03125 7.273438 4.078125 C 7.265625 4.117188 7.269531 4.128906 7.285156 4.148438 C 7.308594 4.171875 7.367188 4.203125 7.414062 4.214844 C 7.4375 4.222656 7.4375 4.21875 7.4375 4.1875 L 7.441406 4.152344 L 7.453125 4.1875 C 7.46875 4.246094 7.503906 4.273438 7.5625 4.28125 C 7.691406 4.300781 7.949219 4.179688 8 4.074219 C 8.015625 4.039062 8.019531 4.003906 8.019531 3.914062 C 8.019531 3.847656 8.027344 3.773438 8.035156 3.746094 C 8.046875 3.703125 8.042969 3.695312 7.957031 3.511719 C 7.738281 3.035156 7.753906 3.0625 7.523438 2.75 L 7.4375 2.628906 L 7.328125 2.585938 C 7.179688 2.527344 7.148438 2.511719 7.09375 2.464844 C 7.042969 2.417969 7.015625 2.371094 7.015625 2.324219 C 7.015625 2.292969 7.019531 2.296875 7.082031 2.355469 C 7.15625 2.421875 7.234375 2.46875 7.308594 2.488281 C 7.355469 2.503906 7.359375 2.503906 7.355469 2.488281 C 7.347656 2.464844 7.367188 2.472656 7.464844 2.515625 C 7.503906 2.535156 7.542969 2.546875 7.550781 2.546875 C 7.5625 2.546875 7.515625 2.5 7.449219 2.4375 C 7.386719 2.378906 7.335938 2.324219 7.339844 2.320312 C 7.34375 2.320312 7.375 2.339844 7.410156 2.363281 C 7.503906 2.429688 7.734375 2.585938 7.765625 2.601562 C 7.828125 2.632812 7.914062 2.636719 8.09375 2.621094 C 8.1875 2.609375 8.296875 2.605469 8.332031 2.609375 C 8.367188 2.613281 8.398438 2.609375 8.398438 2.605469 C 8.398438 2.601562 8.417969 2.589844 8.441406 2.582031 C 8.480469 2.574219 8.480469 2.570312 8.410156 2.574219 C 8.328125 2.582031 8.28125 2.574219 8.289062 2.558594 C 8.292969 2.554688 8.339844 2.527344 8.394531 2.503906 C 8.472656 2.46875 8.488281 2.457031 8.46875 2.453125 C 8.457031 2.449219 8.398438 2.46875 8.335938 2.496094 C 8.21875 2.546875 8.140625 2.558594 8.027344 2.539062 C 7.953125 2.523438 7.75 2.433594 7.695312 2.390625 L 7.664062 2.363281 L 7.765625 2.371094 C 7.824219 2.375 7.894531 2.371094 7.925781 2.367188 C 7.972656 2.359375 7.957031 2.355469 7.820312 2.351562 C 7.675781 2.347656 7.652344 2.34375 7.601562 2.316406 L 7.542969 2.289062 L 7.53125 2.3125 C 7.523438 2.332031 7.519531 2.332031 7.492188 2.28125 C 7.453125 2.207031 7.375 2.136719 7.242188 2.066406 C 7.097656 1.988281 7.050781 1.957031 6.988281 1.894531 C 6.925781 1.835938 6.902344 1.789062 6.902344 1.730469 C 6.902344 1.691406 6.902344 1.691406 6.917969 1.710938 C 6.925781 1.722656 6.949219 1.753906 6.964844 1.777344 C 7.003906 1.828125 7.113281 1.902344 7.199219 1.941406 C 7.3125 1.992188 7.652344 2.097656 7.734375 2.109375 C 7.773438 2.117188 7.851562 2.140625 7.90625 2.160156 C 7.960938 2.183594 8.039062 2.210938 8.082031 2.226562 C 8.234375 2.28125 8.429688 2.273438 8.566406 2.210938 C 8.660156 2.167969 8.664062 2.148438 8.570312 2.1875 C 8.484375 2.222656 8.367188 2.246094 8.339844 2.230469 C 8.328125 2.222656 8.335938 2.21875 8.371094 2.21875 C 8.394531 2.21875 8.421875 2.214844 8.433594 2.210938 C 8.445312 2.203125 8.417969 2.199219 8.351562 2.203125 C 8.296875 2.207031 8.242188 2.207031 8.226562 2.203125 C 8.203125 2.191406 8.210938 2.1875 8.296875 2.15625 C 8.578125 2.046875 8.804688 1.917969 8.90625 1.8125 C 8.976562 1.738281 8.996094 1.699219 8.9375 1.753906 C 8.886719 1.800781 8.875 1.800781 8.914062 1.75 C 8.925781 1.734375 8.933594 1.710938 8.933594 1.699219 C 8.929688 1.6875 8.914062 1.710938 8.882812 1.761719 C 8.855469 1.808594 8.824219 1.851562 8.8125 1.863281 C 8.78125 1.890625 8.648438 1.945312 8.582031 1.957031 C 8.460938 1.984375 8.0625 1.9375 7.867188 1.875 C 7.691406 1.820312 7.636719 1.785156 7.421875 1.585938 C 7.214844 1.394531 7.144531 1.359375 6.945312 1.335938 C 6.84375 1.324219 6.808594 1.332031 6.746094 1.390625 C 6.71875 1.414062 6.6875 1.433594 6.679688 1.433594 C 6.660156 1.433594 6.597656 1.347656 6.53125 1.230469 C 6.480469 1.140625 6.429688 1.074219 6.417969 1.070312 C 6.414062 1.070312 6.402344 1.082031 6.394531 1.097656 Z M 7.882812 4.027344 C 7.871094 4.058594 7.851562 4.097656 7.839844 4.109375 C 7.816406 4.136719 7.738281 4.1875 7.722656 4.1875 C 7.710938 4.1875 7.710938 4.109375 7.722656 4.070312 C 7.730469 4.054688 7.773438 4.007812 7.820312 3.96875 L 7.902344 3.894531 L 7.90625 3.929688 C 7.90625 3.949219 7.898438 3.992188 7.882812 4.027344 Z M 7.4375 4.09375 C 7.4375 4.117188 7.433594 4.132812 7.425781 4.128906 C 7.421875 4.125 7.414062 4.097656 7.414062 4.070312 C 7.414062 4.035156 7.417969 4.023438 7.425781 4.035156 C 7.433594 4.042969 7.4375 4.070312 7.4375 4.09375 Z M 0.46875 9.765625 C 0.574219 10.019531 0.75 10.296875 0.964844 10.542969 C 1.082031 10.683594 1.21875 10.824219 1.554688 11.152344 C 1.730469 11.324219 1.777344 11.378906 1.828125 11.472656 C 1.851562 11.523438 1.890625 11.648438 1.878906 11.65625 C 1.878906 11.660156 1.863281 11.640625 1.851562 11.613281 C 1.769531 11.460938 1.617188 11.28125 1.300781 10.976562 C 1.03125 10.710938 0.933594 10.605469 0.816406 10.457031 C 0.59375 10.167969 0.464844 9.910156 0.382812 9.589844 C 0.355469 9.480469 0.363281 9.464844 0.394531 9.566406 C 0.410156 9.613281 0.445312 9.703125 0.46875 9.765625 Z M 0.214844 10.859375 C 0.335938 11.085938 0.464844 11.257812 0.65625 11.449219 C 0.722656 11.515625 0.773438 11.570312 0.769531 11.570312 C 0.742188 11.570312 0.640625 11.496094 0.554688 11.414062 C 0.351562 11.21875 0.1875 10.941406 0.105469 10.660156 C 0.0625 10.515625 0.0664062 10.492188 0.113281 10.621094 C 0.136719 10.691406 0.183594 10.796875 0.214844 10.859375 Z M 0.214844 10.859375 "/>
<path style=" stroke:none;fill-rule:nonzero;fill:rgb(0%,0%,0%);fill-opacity:1;" d="M 4.875 1.835938 C 4.800781 1.855469 4.71875 1.898438 4.597656 1.980469 C 4.535156 2.023438 4.46875 2.066406 4.445312 2.074219 C 4.394531 2.09375 4.292969 2.191406 4.226562 2.28125 C 4.105469 2.441406 4.089844 2.59375 4.179688 2.671875 C 4.203125 2.695312 4.207031 2.695312 4.253906 2.648438 C 4.3125 2.59375 4.382812 2.5625 4.472656 2.554688 L 4.539062 2.546875 L 4.585938 2.464844 C 4.679688 2.292969 4.828125 2.121094 4.976562 2 C 5.113281 1.894531 5.160156 1.851562 5.152344 1.84375 C 5.140625 1.832031 4.921875 1.828125 4.875 1.835938 Z M 4.875 1.835938 "/>
<path style=" stroke:none;fill-rule:nonzero;fill:rgb(0%,0%,0%);fill-opacity:1;" d="M 7.4375 2.113281 C 7.4375 2.121094 7.449219 2.148438 7.460938 2.171875 C 7.480469 2.207031 7.5 2.226562 7.535156 2.242188 L 7.585938 2.265625 L 7.617188 2.242188 C 7.652344 2.214844 7.691406 2.167969 7.691406 2.144531 C 7.691406 2.140625 7.675781 2.132812 7.660156 2.132812 C 7.640625 2.132812 7.597656 2.125 7.5625 2.117188 C 7.488281 2.097656 7.4375 2.09375 7.4375 2.113281 Z M 7.4375 2.113281 "/>
<path style=" stroke:none;fill-rule:nonzero;fill:rgb(0%,0%,0%);fill-opacity:1;" d="M 7.621094 2.609375 C 7.621094 2.613281 7.664062 2.644531 7.714844 2.679688 C 7.800781 2.742188 7.902344 2.796875 7.914062 2.785156 C 7.921875 2.777344 7.816406 2.691406 7.765625 2.664062 C 7.710938 2.636719 7.621094 2.601562 7.621094 2.609375 Z M 7.621094 2.609375 "/>
<path style=" stroke:none;fill-rule:nonzero;fill:rgb(0%,0%,0%);fill-opacity:1;" d="M 7.054688 3.992188 C 7.082031 4.042969 7.09375 4.113281 7.085938 4.160156 C 7.074219 4.210938 7.085938 4.214844 7.109375 4.164062 L 7.121094 4.128906 L 7.125 4.160156 C 7.128906 4.175781 7.113281 4.226562 7.082031 4.296875 C 7.046875 4.378906 7.035156 4.417969 7.03125 4.480469 C 7.027344 4.527344 7.027344 4.550781 7.035156 4.542969 C 7.042969 4.535156 7.042969 4.515625 7.042969 4.503906 C 7.039062 4.488281 7.054688 4.441406 7.078125 4.398438 C 7.109375 4.332031 7.117188 4.324219 7.113281 4.351562 C 7.09375 4.472656 7.09375 4.539062 7.105469 4.539062 C 7.113281 4.539062 7.117188 4.527344 7.117188 4.515625 C 7.117188 4.480469 7.132812 4.441406 7.140625 4.441406 C 7.144531 4.441406 7.148438 4.476562 7.148438 4.519531 C 7.144531 4.671875 7.160156 4.804688 7.1875 4.855469 C 7.207031 4.898438 7.214844 4.902344 7.222656 4.886719 C 7.230469 4.871094 7.226562 4.855469 7.214844 4.832031 C 7.191406 4.78125 7.195312 4.765625 7.222656 4.8125 C 7.234375 4.835938 7.265625 4.878906 7.292969 4.90625 L 7.347656 4.960938 L 7.347656 4.921875 C 7.347656 4.894531 7.332031 4.859375 7.289062 4.796875 C 7.242188 4.722656 7.234375 4.699219 7.234375 4.660156 C 7.234375 4.605469 7.261719 4.550781 7.3125 4.519531 C 7.339844 4.5 7.339844 4.5 7.332031 4.527344 C 7.328125 4.542969 7.320312 4.570312 7.316406 4.589844 L 7.3125 4.621094 L 7.339844 4.589844 C 7.382812 4.542969 7.398438 4.464844 7.382812 4.398438 C 7.363281 4.332031 7.324219 4.265625 7.269531 4.222656 C 7.242188 4.199219 7.226562 4.171875 7.214844 4.136719 C 7.183594 4.019531 7.132812 3.960938 7.070312 3.960938 C 7.039062 3.960938 7.039062 3.960938 7.054688 3.992188 Z M 7.054688 3.992188 "/>
<path style=" stroke:none;fill-rule:nonzero;fill:rgb(0%,0%,0%);fill-opacity:1;" d="M 7.097656 4.644531 C 7.09375 4.671875 7.101562 4.691406 7.105469 4.691406 C 7.121094 4.691406 7.121094 4.652344 7.105469 4.621094 C 7.097656 4.605469 7.097656 4.609375 7.097656 4.644531 Z M 7.097656 4.644531 "/>
<path style=" stroke:none;fill-rule:nonzero;fill:rgb(0%,0%,0%);fill-opacity:1;" d="M 7.234375 8.542969 C 7.207031 8.554688 7.1875 8.566406 7.191406 8.570312 C 7.195312 8.578125 7.277344 8.542969 7.285156 8.53125 C 7.292969 8.515625 7.292969 8.515625 7.234375 8.542969 Z M 7.234375 8.542969 "/>
<path style=" stroke:none;fill-rule:nonzero;fill:rgb(0%,0%,0%);fill-opacity:1;" d="M 7.234375 8.675781 C 7.136719 8.738281 7.054688 8.835938 7.082031 8.859375 C 7.089844 8.867188 7.113281 8.847656 7.160156 8.792969 C 7.195312 8.746094 7.246094 8.691406 7.269531 8.671875 C 7.332031 8.617188 7.320312 8.617188 7.234375 8.675781 Z M 7.234375 8.675781 "/>
<path style=" stroke:none;fill-rule:nonzero;fill:rgb(0%,0%,0%);fill-opacity:1;" d="M 7.144531 8.691406 C 7.054688 8.75 6.960938 8.859375 6.972656 8.894531 C 6.980469 8.910156 7.050781 8.847656 7.050781 8.824219 C 7.050781 8.808594 7.140625 8.71875 7.191406 8.679688 C 7.230469 8.652344 7.191406 8.660156 7.144531 8.691406 Z M 7.144531 8.691406 "/>
<path style=" stroke:none;fill-rule:nonzero;fill:rgb(0%,0%,0%);fill-opacity:1;" d="M 2.828125 11.957031 C 2.789062 11.996094 2.742188 12.054688 2.722656 12.09375 L 2.683594 12.160156 L 2.761719 12.203125 C 2.972656 12.320312 3.03125 12.351562 3.144531 12.402344 C 3.324219 12.484375 3.414062 12.503906 3.617188 12.5 C 3.734375 12.496094 3.785156 12.492188 3.792969 12.480469 C 3.796875 12.472656 3.855469 12.464844 3.996094 12.460938 C 4.171875 12.457031 4.191406 12.457031 4.25 12.480469 C 4.324219 12.503906 4.320312 12.503906 4.320312 12.492188 C 4.320312 12.484375 4.304688 12.472656 4.285156 12.464844 C 4.203125 12.421875 4.28125 12.417969 4.421875 12.453125 C 4.53125 12.484375 4.613281 12.535156 4.738281 12.648438 C 4.804688 12.707031 4.855469 12.75 4.855469 12.746094 C 4.855469 12.722656 4.785156 12.628906 4.730469 12.578125 C 4.621094 12.476562 4.445312 12.414062 4.273438 12.414062 C 4.199219 12.414062 4.171875 12.410156 4.109375 12.382812 C 4.066406 12.363281 3.992188 12.335938 3.941406 12.320312 C 3.851562 12.292969 3.828125 12.289062 3.640625 12.289062 C 3.402344 12.285156 3.390625 12.285156 3.242188 12.195312 C 3.078125 12.097656 3.019531 12.042969 2.945312 11.941406 C 2.925781 11.910156 2.90625 11.890625 2.902344 11.890625 C 2.898438 11.890625 2.863281 11.917969 2.828125 11.957031 Z M 3.203125 12.234375 C 3.292969 12.265625 3.378906 12.292969 3.390625 12.292969 C 3.402344 12.296875 3.390625 12.300781 3.371094 12.304688 C 3.28125 12.324219 3.097656 12.269531 3 12.1875 L 2.964844 12.160156 L 3 12.167969 C 3.019531 12.171875 3.109375 12.203125 3.203125 12.234375 Z M 3.011719 12.238281 C 3.101562 12.292969 3.1875 12.328125 3.242188 12.328125 C 3.269531 12.328125 3.269531 12.328125 3.257812 12.335938 C 3.222656 12.359375 3.136719 12.347656 3.066406 12.316406 C 3.003906 12.285156 2.882812 12.183594 2.910156 12.183594 C 2.914062 12.183594 2.960938 12.210938 3.011719 12.238281 Z M 3.011719 12.238281 "/>
<path style=" stroke:none;fill-rule:nonzero;fill:rgb(0%,0%,0%);fill-opacity:1;" d="M 2.691406 12.257812 C 2.667969 12.28125 2.699219 12.3125 2.851562 12.421875 C 3.039062 12.558594 3.164062 12.632812 3.289062 12.683594 C 3.464844 12.753906 3.65625 12.78125 3.847656 12.761719 C 3.90625 12.757812 4.027344 12.75 4.113281 12.746094 C 4.246094 12.738281 4.28125 12.742188 4.359375 12.761719 C 4.558594 12.808594 4.691406 12.894531 4.824219 13.0625 C 4.925781 13.1875 4.921875 13.183594 4.929688 13.175781 C 4.949219 13.164062 4.886719 13.0625 4.820312 12.996094 C 4.722656 12.902344 4.628906 12.835938 4.519531 12.785156 C 4.390625 12.726562 4.316406 12.714844 4.132812 12.726562 C 3.6875 12.746094 3.605469 12.746094 3.515625 12.726562 C 3.425781 12.703125 3.300781 12.660156 3.207031 12.617188 C 3.148438 12.585938 3.011719 12.5 3.019531 12.496094 C 3.019531 12.492188 3.054688 12.503906 3.089844 12.515625 C 3.152344 12.535156 3.191406 12.539062 3.523438 12.546875 C 3.867188 12.550781 3.894531 12.554688 3.949219 12.574219 C 3.992188 12.59375 4.015625 12.597656 4.035156 12.589844 C 4.0625 12.582031 4.0625 12.582031 4.039062 12.570312 C 3.976562 12.539062 3.882812 12.53125 3.566406 12.527344 C 3.265625 12.527344 3.230469 12.527344 3.152344 12.503906 C 3.015625 12.464844 2.882812 12.394531 2.761719 12.300781 C 2.726562 12.273438 2.695312 12.253906 2.691406 12.257812 Z M 2.691406 12.257812 "/>
<path style=" stroke:none;fill-rule:nonzero;fill:rgb(0%,0%,0%);fill-opacity:1;" d="M 1.773438 12.738281 C 1.765625 12.761719 1.8125 13.070312 1.84375 13.195312 C 1.914062 13.453125 2.050781 13.59375 2.285156 13.644531 C 2.386719 13.664062 2.585938 13.675781 2.578125 13.660156 C 2.574219 13.65625 2.546875 13.648438 2.519531 13.648438 C 2.441406 13.648438 2.257812 13.601562 2.167969 13.554688 C 2.066406 13.503906 1.964844 13.410156 1.925781 13.328125 C 1.898438 13.269531 1.867188 13.148438 1.878906 13.140625 C 1.878906 13.136719 1.894531 13.15625 1.90625 13.179688 C 1.992188 13.339844 2.199219 13.449219 2.480469 13.492188 C 2.605469 13.507812 2.855469 13.511719 2.945312 13.5 C 2.992188 13.492188 2.992188 13.492188 2.976562 13.46875 C 2.949219 13.433594 2.78125 13.300781 2.664062 13.222656 C 2.601562 13.183594 2.445312 13.085938 2.3125 13.011719 C 2.183594 12.933594 2.039062 12.847656 1.992188 12.820312 C 1.949219 12.789062 1.894531 12.757812 1.867188 12.75 C 1.84375 12.742188 1.8125 12.730469 1.804688 12.726562 C 1.789062 12.71875 1.78125 12.726562 1.773438 12.738281 Z M 1.773438 12.738281 "/>
</g>
</svg>
